<?xml version="1.0" encoding="utf-8"?>
<!-- Generator: Adobe Illustrator 22.1.0, SVG Export Plug-In . SVG Version: 6.00 Build 0)  -->
<svg version="1.1" id="Layer_2" xmlns="http://www.w3.org/2000/svg" xmlns:xlink="http://www.w3.org/1999/xlink" x="0px" y="0px"
	 viewBox="0 0 750 750" style="enable-background:new 0 0 750 750;" xml:space="preserve">
<style type="text/css">
	.st0{fill:#333233;}
	.st1{fill:#F2F2F2;}
	.st2{fill:none;stroke:#E2E2E1;stroke-width:12;stroke-miterlimit:10;}
	.st3{fill:#CA757E;}
	.st4{fill:#ED6B7B;}
	.st5{fill:#B63A3A;}
	.st6{fill:#9A3334;}
	.st7{fill:#EF7879;}
	.st8{fill:#FFFFFF;}
	.st9{fill:#D37171;}
	.st10{fill:#C24D5F;}
	.st11{fill:#F0868D;}
	.st12{fill:#EC6668;}
	.st13{fill:#53BCEA;}
	.st14{fill:#4AA5C6;}
	.st15{fill:#D33331;}
	.st16{fill:#B52F2C;}
	.st17{fill:#E83C3C;}
	.st18{fill:#D3D3D3;}
	.st19{fill:#EA546B;}
	.st20{fill:#D17988;}
	.st21{fill:#882D2E;}
	.st22{fill:#CA6364;}
</style>
<g>
	<path class="st0" d="M413.2,310.5h-15.1v-26h-45.4v26h-15.3c-11,0-20,9-20,20v125.3v9.8v12.3h0c1.3,31.2,114.4,31.2,115.7,0h0
		v-12.3v-9.8V330.5C433.2,319.4,424.3,310.5,413.2,310.5z"/>
	<g>
		<circle class="st0" cx="450.2" cy="226.2" r="9.2"/>
		
			<ellipse transform="matrix(0.9951 -9.853860e-02 9.853860e-02 0.9951 -20.8291 30.7272)" class="st0" cx="300.7" cy="226.2" rx="9.2" ry="9.2"/>
	</g>
	<path class="st0" d="M449.3,147.4c0,0,0-0.1,0-0.1c1.6-0.7,9.6-4.4,9.6-5.9c0-1.7-29.9-22-67.1-14.7c0,0,4.6-3.9,8.7-7
		c1.8-1.3,0.9-4.1-1.3-4.2c-12.6-0.4-40.7,1.3-78.1,19.6c0,0,0.9-5.3,2.3-9.4c0.6-1.8-1.4-3.4-3-2.3c-2.5,1.7-5.8,5.3-9.4,12.7
		c0,0-4.5-4.3-7.9-7c-1.2-1-3,0-2.8,1.6c0.4,3.3,1.4,8.3,3.6,12.3c-0.1,0.1-0.1,0.2-0.2,0.3c-1.7-0.4-9.2-2.1-10.9-1.6
		c0,0,5.8,8.9,8,14.3v10.5v25c0,0,0,0,0,0V261c0,22.1,17.9,40,40,40h69.5c22.1,0,40-17.9,40-40v-64.5v-5v-30.3
		c3.1-1.5,6.1-3.4,8.8-5.5C460.6,154.4,451.5,147.7,449.3,147.4z"/>
	<path class="st0" d="M492.4,560.4L408,475.9c-8-8-20.9-8-28.9,0l0,0c-3.7,3.7-5.7,8.6-5.9,13.4h10.7v20.3l79.7,79.7
		c8,8,20.9,8,28.9,0S500.4,568.3,492.4,560.4z"/>
	<path class="st0" d="M367,489.4h10.6c-0.3-4.9-2.2-9.7-5.9-13.4l0,0c-8-8-20.9-8-28.9,0l-84.4,84.4c-8,8-8,20.9,0,28.9l0,0
		c8,8,20.9,8,28.9,0l79.7-79.7V489.4z"/>
	
		<rect x="244.6" y="566.2" transform="matrix(0.7071 0.7071 -0.7071 0.7071 489.6402 -16.726)" class="st0" width="40.9" height="32.9"/>
	<path class="st0" d="M258.3,599.3l-29-29l9.6-9.6c3.9-3.9,10.2-3.9,14.1,0l22,22L258.3,599.3z"/>
	<path class="st0" d="M266.6,610l-38.4-38.4c-0.7-0.7-0.7-1.8,0-2.4h0c0.7-0.7,1.8-0.7,2.4,0l38.4,38.4c0.7,0.7,0.7,1.8,0,2.4l0,0
		C268.3,610.6,267.2,610.6,266.6,610z"/>
	<path class="st1" d="M265.3,599.6l-26.8-26.8c-1.6-1.6-1.6-4.2,0-5.8h0c3.9-3.9,10.2-3.9,14.1,0l22.6,22.6c1.6,1.6,1.6,4.2,0,5.8
		l-4.2,4.2C269.5,601.2,266.9,601.2,265.3,599.6z"/>
	<polyline class="st2" points="346.5,501.2 307.1,540.6 266.7,581 	"/>
	<circle class="st1" cx="346.5" cy="501.2" r="12.7"/>
	<circle class="st1" cx="307.1" cy="540.6" r="9.8"/>
	<circle class="st1" cx="266.7" cy="581" r="10.7"/>
	
		<rect x="465.3" y="566.1" transform="matrix(-0.7071 0.7071 -0.7071 -0.7071 1241.2416 651.0527)" class="st0" width="40.9" height="32.9"/>
	<path class="st0" d="M492.5,599.2l29-29l-9.6-9.6c-3.9-3.9-10.2-3.9-14.1,0l-22,22L492.5,599.2z"/>
	<path class="st0" d="M484.2,609.9l38.4-38.4c0.7-0.7,0.7-1.8,0-2.4l0,0c-0.7-0.7-1.8-0.7-2.4,0l-38.4,38.4c-0.7,0.7-0.7,1.8,0,2.4
		l0,0C482.5,610.5,483.5,610.5,484.2,609.9z"/>
	<path class="st1" d="M485.3,599.6l26.8-26.8c1.6-1.6,1.6-4.2,0-5.8l0,0c-3.9-3.9-10.2-3.9-14.1,0l-22.6,22.6
		c-1.6,1.6-1.6,4.2,0,5.8l4.2,4.2C481.1,601.2,483.7,601.2,485.3,599.6z"/>
	<polyline class="st2" points="404.2,501.3 443.6,540.7 484,581.1 	"/>
	<circle class="st1" cx="443.6" cy="540.7" r="9.8"/>
	<circle class="st1" cx="484" cy="581.1" r="10.7"/>
	<circle class="st1" cx="404.3" cy="501.2" r="12.7"/>
	<g>
		<path class="st0" d="M346.6,625.8L346.6,625.8c11.3,0,20.5-9.2,20.5-20.5V486c0-11.3-9.2-20.5-20.5-20.5h0
			c-11.3,0-20.5,9.2-20.5,20.5v119.4C326.1,616.7,335.3,625.8,346.6,625.8z"/>
		<rect x="326.1" y="599.9" class="st0" width="40.9" height="32.9"/>
		<path class="st0" d="M353.6,632.9h-41.1v-13.6c0-5.5,4.5-10,10-10h31.1V632.9z"/>
		<path class="st0" d="M367,634.6h-54.3c-0.9,0-1.7-0.8-1.7-1.7l0,0c0-0.9,0.8-1.7,1.7-1.7H367c0.9,0,1.7,0.8,1.7,1.7l0,0
			C368.7,633.8,367.9,634.6,367,634.6z"/>
		<path class="st1" d="M358.8,628.1h-37.9c-2.3,0-4.1-1.8-4.1-4.1l0,0c0-5.5,4.5-10,10-10h32c2.3,0,4.1,1.8,4.1,4.1v5.9
			C362.8,626.3,361,628.1,358.8,628.1z"/>
		<polyline class="st2" points="346.6,501.2 346.6,556.9 346.6,614 		"/>
		<circle class="st1" cx="346.6" cy="501.2" r="12.7"/>
		<circle class="st1" cx="346.6" cy="556.9" r="9.8"/>
		<circle class="st1" cx="346.6" cy="614" r="10.7"/>
	</g>
	<g>
		<path class="st0" d="M404.3,625.8L404.3,625.8c11.3,0,20.5-9.2,20.5-20.5V486c0-11.3-9.2-20.5-20.5-20.5h0
			c-11.3,0-20.5,9.2-20.5,20.5v119.4C383.8,616.7,393,625.8,404.3,625.8z"/>
		
			<rect x="383.9" y="599.9" transform="matrix(-1 -4.498813e-11 4.498813e-11 -1 808.6409 1232.7974)" class="st0" width="40.9" height="32.9"/>
		<path class="st0" d="M397.3,632.9h41.1v-13.6c0-5.5-4.5-10-10-10h-31.1V632.9z"/>
		<path class="st0" d="M383.9,634.6h54.3c0.9,0,1.7-0.8,1.7-1.7l0,0c0-0.9-0.8-1.7-1.7-1.7h-54.3c-0.9,0-1.7,0.8-1.7,1.7l0,0
			C382.2,633.8,383,634.6,383.9,634.6z"/>
		<path class="st1" d="M391.9,628.1h37.9c2.3,0,4.1-1.8,4.1-4.1l0,0c0-5.5-4.5-10-10-10h-32c-2.3,0-4.1,1.8-4.1,4.1v5.9
			C387.9,626.3,389.7,628.1,391.9,628.1z"/>
		<polyline class="st2" points="404.1,501.2 404.1,556.9 404.1,614 		"/>
		<circle class="st1" cx="404.1" cy="556.9" r="9.8"/>
		<circle class="st1" cx="404.1" cy="614" r="10.7"/>
		<circle class="st1" cx="404.3" cy="501.2" r="12.7"/>
	</g>
	<circle class="st0" cx="258.9" cy="253.6" r="10.5"/>
	<circle class="st0" cx="236.7" cy="250.3" r="22.7"/>
	
		<rect x="256.6" y="235.7" transform="matrix(-0.7071 0.7071 -0.7071 -0.7071 677.3164 308.9763)" class="st0" width="36" height="118.1"/>
	<circle class="st0" cx="232.9" cy="253" r="18"/>
	<circle class="st0" cx="316.4" cy="336.5" r="18"/>
	<polyline class="st2" points="311.9,332 278.7,298.7 232.9,253 	"/>
	<circle class="st1" cx="311.9" cy="332" r="11.7"/>
	<circle class="st1" cx="278.7" cy="298.7" r="10.2"/>
	<circle class="st1" cx="232.9" cy="253" r="13.9"/>
	<circle class="st1" cx="258.9" cy="253.6" r="8"/>
	<circle class="st0" cx="218.2" cy="318.3" r="10.5"/>
	<circle class="st0" cx="200.2" cy="331.7" r="22.7"/>
	
		<rect x="240.4" y="277.3" transform="matrix(-1.836970e-16 1 -1 -1.836970e-16 594.8 77.9129)" class="st0" width="36" height="118.1"/>
	<circle class="st0" cx="199.4" cy="336.4" r="18"/>
	<circle class="st0" cx="317.5" cy="336.4" r="18"/>
	<polyline class="st2" points="311.1,336.4 264.1,336.4 199.4,336.4 	"/>
	<circle class="st1" cx="311.1" cy="336.4" r="11.7"/>
	<circle class="st1" cx="264.1" cy="336.4" r="10.2"/>
	<circle class="st1" cx="199.4" cy="336.4" r="13.9"/>
	<circle class="st1" cx="218.2" cy="318.3" r="8"/>
	<circle class="st0" cx="490" cy="253.4" r="10.5"/>
	
		<rect x="456.5" y="235.7" transform="matrix(0.7071 0.7071 -0.7071 0.7071 347.113 -249.3293)" class="st0" width="36" height="117.4"/>
	<circle class="st0" cx="512.2" cy="250.1" r="22.7"/>
	<circle class="st0" cx="516" cy="252.8" r="18"/>
	<circle class="st0" cx="432.5" cy="336.4" r="18"/>
	<polyline class="st2" points="437,331.9 470.3,298.6 516,252.8 	"/>
	<circle class="st1" cx="470.3" cy="298.6" r="10.2"/>
	<circle class="st1" cx="437" cy="331.9" r="11.7"/>
	<circle class="st1" cx="516" cy="252.8" r="13.9"/>
	<circle class="st1" cx="490" cy="253.4" r="8"/>
	<circle class="st0" cx="531.8" cy="318.3" r="10.5"/>
	
		<rect x="473.9" y="277.7" transform="matrix(-8.993979e-11 1 -1 -8.993979e-11 828.2848 -155.5717)" class="st0" width="36" height="117.4"/>
	<circle class="st0" cx="549.8" cy="331.7" r="22.7"/>
	<circle class="st0" cx="550.6" cy="336.4" r="18"/>
	<circle class="st0" cx="432.5" cy="336.4" r="18"/>
	<polyline class="st2" points="438.9,336.4 485.9,336.4 550.6,336.4 	"/>
	<circle class="st1" cx="485.9" cy="336.4" r="10.2"/>
	<circle class="st1" cx="438.9" cy="336.4" r="11.7"/>
	<circle class="st1" cx="550.6" cy="336.4" r="13.9"/>
	<circle class="st1" cx="531.8" cy="318.3" r="8"/>
	<g>
		<path class="st3" d="M401.6,352.1c-3.5,0-7.5-3.5-13.1-8.4c-3.9-3.4-10.4-9.2-13-9.2c-2.7,0-8.7,5.9-12.3,9.5
			c-5.7,5.5-9.4,9.2-13.2,7.6c-2.1-0.9-3.1-2.9-3.1-6h6.6c-0.1-0.1-0.3-0.3-0.5-0.4c-0.7-0.4-1.3-0.3-1.5-0.2c1.2-0.4,4.6-3.8,6.9-6
			c5.8-5.6,11.7-11.4,17.2-11.4c5.2,0,11.3,5.3,17.7,10.9c2.9,2.5,7.2,6.4,8.7,6.7c-0.5-0.1-1.1,0.1-1.5,0.5h6.5
			c0,3.8-1.7,5.4-3.1,6.1C403,351.9,402.3,352.1,401.6,352.1z"/>
		<path class="st4" d="M406.3,432.9c-0.1-0.1-8.7-12-17.7-16.1c-11.1-5.1-19.9-27.6-20.1-31.7l5.6-0.3c0.3,3.2,8.6,23.1,16.8,27
			c10.4,4.7,19.5,17.4,20,17.9L406.3,432.9z"/>
		<path class="st1" d="M375.4,465.7L375.4,465.7c-4.2,0-7.6-3.4-7.6-7.6V318.6c0-4.2,3.4-7.6,7.6-7.6l0,0c4.2,0,7.6,3.4,7.6,7.6V458
			C383,462.3,379.6,465.7,375.4,465.7z"/>
		<g>
			<path class="st5" d="M370.8,428.8l-37.3,16.5c-4,1.8-8.5-1.2-8.5-5.6V416c0-3.4,2.7-6.1,6.1-6.1h37.3c3.4,0,6.1,2.7,6.1,6.1v7.2
				C374.4,425.7,373,427.8,370.8,428.8z"/>
			<circle class="st6" cx="367.7" cy="423.7" r="1.7"/>
			<circle class="st6" cx="368.7" cy="427.3" r="1"/>
			<circle class="st6" cx="371.6" cy="425.3" r="0.8"/>
			<path class="st7" d="M347,412.4c0-1.9,1.6-3.5,3.5-3.5h12.8c1.9,0,3.5,1.6,3.5,3.5s-1.6,3.5-3.5,3.5h-12.8
				C348.6,416,347,414.4,347,412.4z"/>
			<path class="st8" d="M356.6,410.4L356.6,410.4c0-0.2,0.1-0.4,0.3-0.4h3.1c0.1,0,0.3,0.2,0.3,0.4l0,0c0,0.2-0.1,0.4-0.3,0.4h-3.1
				C356.7,410.8,356.6,410.6,356.6,410.4z"/>
			<circle class="st9" cx="362.9" cy="412.4" r="2.6"/>
			<path class="st7" d="M353.1,418.5c0-1.4,1.2-2.6,2.6-2.6h9.3c1.4,0,2.6,1.2,2.6,2.6s-1.2,2.6-2.6,2.6h-9.3
				C354.3,421.1,353.1,419.9,353.1,418.5z"/>
			<path class="st8" d="M357.6,417.1L357.6,417.1c0-0.1,0.1-0.3,0.3-0.3h2.7c0.1,0,0.3,0.1,0.3,0.3l0,0c0,0.1-0.1,0.3-0.3,0.3h-2.7
				C357.8,417.3,357.6,417.2,357.6,417.1z"/>
			<path class="st8" d="M361.4,417.1L361.4,417.1c0-0.1,0.1-0.3,0.3-0.3h0.6c0.1,0,0.3,0.1,0.3,0.3l0,0c0,0.1-0.1,0.3-0.3,0.3h-0.6
				C361.5,417.3,361.4,417.2,361.4,417.1z"/>
			<circle class="st9" cx="364.8" cy="418.5" r="1.9"/>
			<path class="st6" d="M352.8,407.9H330c-3.8,0-6.8,3-6.8,6.8v26.5c0,4.9,5,8.2,9.5,6.2l21.5-9.5c1.3-0.6,2.2-1.9,2.2-3.3v-23
				C356.4,409.5,354.8,407.9,352.8,407.9z"/>
		</g>
		<path class="st1" d="M360.1,414L360.1,414c0-2.1-1.7-3.8-3.8-3.8h-13.4c-2.1,0-3.8,1.7-3.8,3.8l0,0c0,2.1,1.7,3.8,3.8,3.8h13.4
			C358.4,417.8,360.1,416.1,360.1,414z"/>
		<circle class="st10" cx="403.9" cy="428.2" r="10.6"/>
		<path class="st11" d="M331.1,404.4H357c4.4,0,7.9-3.5,7.9-7.9v-62.3c0-4.4-3.5-7.9-7.9-7.9h-1.2c-18,0-32.6,14.6-32.6,32.6v37.6
			C323.2,400.9,326.7,404.4,331.1,404.4z"/>
		<path class="st11" d="M419.9,404.4h-24.7c-4.4,0-7.9-3.5-7.9-7.9v-62.3c0-4.4,3.5-7.9,7.9-7.9l0,0c18,0,32.6,14.6,32.6,32.6v37.6
			C427.8,400.9,424.3,404.4,419.9,404.4z"/>
		<path class="st4" d="M395.2,326.3L395.2,326.3c-4.4,0-7.9,3.5-7.9,7.9v62.3c0,4.4,3.5,7.9,7.9,7.9h7.9v-77.1
			C400.5,326.6,397.9,326.3,395.2,326.3z"/>
		<path class="st4" d="M357,326.3L357,326.3c4.4,0,7.9,3.5,7.9,7.9v62.3c0,4.4-3.5,7.9-7.9,7.9h-7.9v-77.1
			C351.6,326.6,354.3,326.3,357,326.3z"/>
		<path class="st12" d="M358.1,323.4h-1.4c-7.4,0-14.3,2.1-20.1,5.8c-1.6,1-1.9,3.3-0.5,4.7l26.1,26.1c1.9,1.9,5.1,0.6,5.1-2.1
			v-25.3C367.3,327.5,363.1,323.4,358.1,323.4z"/>
		<path class="st12" d="M394.1,323.4h1.4c7.4,0,14.3,2.1,20.1,5.8c1.6,1,1.9,3.3,0.5,4.7L390,360c-1.9,1.9-5.1,0.6-5.1-2.1v-25.3
			C384.9,327.5,389.1,323.4,394.1,323.4z"/>
		<g id="Layer_4_1_">
			<g>
				<path class="st13" d="M382,353.9c-2.2,0-4-1.8-4-4v-14.5c0-2.2,1.8-4,4-4c2.2,0,4,1.8,4,4v14.5
					C386.1,352.1,384.3,353.9,382,353.9z"/>
				<path class="st14" d="M382,338c-0.7,0-1.4-0.3-1.9-0.8s-0.8-1.2-0.8-1.9c0-0.7,0.3-1.4,0.8-1.9c0.6-0.6,1.6-0.9,2.4-0.7
					c0.2,0,0.3,0.1,0.5,0.2c0.2,0.1,0.3,0.2,0.5,0.2c0.1,0.1,0.3,0.2,0.4,0.3c0.5,0.5,0.8,1.2,0.8,1.9c0,0.7-0.3,1.4-0.8,1.9
					c-0.1,0.1-0.3,0.2-0.4,0.3c-0.2,0.1-0.3,0.2-0.5,0.2c-0.2,0.1-0.3,0.1-0.5,0.2C382.4,338,382.2,338,382,338z"/>
				<path class="st8" d="M379.8,346.9L379.8,346.9c-0.2,0-0.4-0.2-0.4-0.4v-4.2c0-0.2,0.2-0.4,0.4-0.4l0,0c0.2,0,0.4,0.2,0.4,0.4
					v4.2C380.2,346.7,380,346.9,379.8,346.9z"/>
				<path class="st8" d="M379.8,341.1L379.8,341.1c-0.2,0-0.4-0.2-0.4-0.4v-1c0-0.2,0.2-0.4,0.4-0.4l0,0c0.2,0,0.4,0.2,0.4,0.4v1
					C380.2,340.9,380,341.1,379.8,341.1z"/>
				<path class="st13" d="M391.1,349c0-2.2,1.8-4,4-4H416c2.2,0,4,1.8,4,4c0,2.2-1.8,4-4,4h-20.9C392.9,353,391.1,351.2,391.1,349z"
					/>
				<path class="st14" d="M413.3,349c0-0.7,0.3-1.4,0.8-1.9s1.2-0.8,1.9-0.8c0.7,0,1.4,0.3,1.9,0.8c0.6,0.6,0.9,1.6,0.7,2.4
					c0,0.2-0.1,0.3-0.2,0.5c-0.1,0.2-0.2,0.3-0.2,0.5c-0.1,0.1-0.2,0.3-0.3,0.4c-0.5,0.5-1.2,0.8-1.9,0.8c-0.7,0-1.4-0.3-1.9-0.8
					c-0.1-0.1-0.2-0.3-0.3-0.4c-0.1-0.2-0.2-0.3-0.2-0.5c-0.1-0.2-0.1-0.3-0.2-0.5C413.3,349.3,413.3,349.2,413.3,349z"/>
				<path class="st8" d="M404.4,346.7L404.4,346.7c0-0.2,0.2-0.4,0.4-0.4h4.2c0.2,0,0.4,0.2,0.4,0.4l0,0c0,0.2-0.2,0.4-0.4,0.4h-4.2
					C404.6,347.1,404.4,346.9,404.4,346.7z"/>
				<path class="st8" d="M410.3,346.7L410.3,346.7c0-0.2,0.2-0.4,0.4-0.4h1c0.2,0,0.4,0.2,0.4,0.4l0,0c0,0.2-0.2,0.4-0.4,0.4h-1
					C410.5,347.1,410.3,346.9,410.3,346.7z"/>
				<path class="st15" d="M396.2,347.5c-1.2,0-2.2-1-2.2-2.2v-7.8c0-1.2,1-2.2,2.2-2.2c1.2,0,2.2,1,2.2,2.2v7.8
					C398.4,346.5,397.4,347.5,396.2,347.5z"/>
				<path class="st16" d="M396.2,338.9c-0.4,0-0.8-0.2-1-0.4c-0.3-0.3-0.4-0.6-0.4-1s0.2-0.8,0.4-1c0.3-0.3,0.8-0.5,1.3-0.4
					c0.1,0,0.2,0,0.3,0.1c0.1,0,0.2,0.1,0.3,0.1c0.1,0.1,0.2,0.1,0.2,0.2c0.3,0.3,0.4,0.6,0.4,1s-0.2,0.8-0.4,1
					c-0.1,0.1-0.1,0.1-0.2,0.2c-0.1,0.1-0.2,0.1-0.3,0.1s-0.2,0.1-0.3,0.1C396.4,338.9,396.3,338.9,396.2,338.9z"/>
				<path class="st15" d="M397.8,346.7c-0.9,0.9-2.2,0.9-3.1,0l-5.5-5.6c-0.9-0.9-0.9-2.2,0-3.1c0.9-0.9,2.2-0.9,3.1,0l5.6,5.6
					C398.6,344.5,398.6,345.9,397.8,346.7z"/>
				<path class="st16" d="M391.7,340.7c-0.3,0.3-0.6,0.4-1,0.4s-0.8-0.2-1-0.4c-0.3-0.3-0.4-0.6-0.4-1c0-0.5,0.2-0.9,0.7-1.2
					c0.1-0.1,0.2-0.1,0.2-0.1c0.1,0,0.2-0.1,0.3-0.1s0.2,0,0.3,0c0.4,0,0.8,0.2,1,0.4c0.3,0.3,0.4,0.6,0.4,1c0,0.1,0,0.2,0,0.3
					s0,0.2-0.1,0.3c0,0.1-0.1,0.2-0.1,0.2C391.8,340.5,391.8,340.6,391.7,340.7z"/>
				<path class="st15" d="M394.7,346.7c-0.9-0.9-0.9-2.2,0-3.1l5.5-5.6c0.9-0.9,2.2-0.9,3.1,0c0.9,0.9,0.9,2.2,0,3.1l-5.5,5.6
					C396.9,347.6,395.5,347.6,394.7,346.7z"/>
				<path class="st16" d="M400.8,340.7c-0.3-0.3-0.4-0.6-0.4-1s0.2-0.8,0.4-1c0.3-0.3,0.6-0.4,1-0.4c0.5,0,0.9,0.2,1.2,0.7
					c0.1,0.1,0.1,0.2,0.1,0.2c0,0.1,0.1,0.2,0.1,0.3s0,0.2,0,0.3c0,0.4-0.2,0.8-0.4,1c-0.3,0.3-0.6,0.4-1,0.4c-0.1,0-0.2,0-0.3,0
					s-0.2,0-0.3-0.1c-0.1,0-0.2-0.1-0.2-0.1C400.9,340.8,400.8,340.7,400.8,340.7z"/>
				<circle class="st15" cx="396.2" cy="345.5" r="4.5"/>
				<path class="st15" d="M376.6,357.9v7c0,7.1,5.8,12.9,12.9,12.9h14.6c1.5,0,2.8-0.6,3.8-1.6l-27.5-27.5
					C378.1,351.1,376.6,354.3,376.6,357.9z"/>
				<g>
					<path class="st17" d="M407.2,376.9c-0.4,0.3-0.9,0.5-1.4,0.7C406.2,377.4,406.7,377.2,407.2,376.9z"/>
					<path class="st17" d="M396.6,344.9h-7c-6.3,0-11.5,4.4-12.7,10.3c0.5-2.5,1.8-4.8,3.5-6.5l27.5,27.5c1-1,1.6-2.3,1.6-3.8v-14.6
						C409.5,350.7,403.7,344.9,396.6,344.9z"/>
				</g>
				<path class="st12" d="M393.9,343.7h-3.7c-8.2,0-14.9,6.7-14.9,14.9v3.7c0,1.1,1.3,1.7,2.1,0.9l17.3-17.3
					C395.6,345,395,343.7,393.9,343.7z"/>
			</g>
		</g>
		<path class="st1" d="M408.5,149.9h-65.1c-20.7,0-37.5,16.8-37.5,37.5v60.7c0,4.2,3.4,7.6,7.6,7.6h2c4.2,0,7.6,3.4,7.6,7.6l0,0
			c0,4.2,3.4,7.6,7.6,7.6h90.1c4.2,0,7.6-3.4,7.6-7.6l0,0c0-4.2,3.4-7.6,7.6-7.6h2c4.2,0,7.6-3.4,7.6-7.6v-60.7
			C445.9,166.7,429.2,149.9,408.5,149.9z"/>
		<path class="st18" d="M373.9,158.7h-27.8c-17.7,0-32,14.3-32,32v19.7C374.8,210.9,374.8,210.9,373.9,158.7z"/>
		<path class="st1" d="M390.7,322.4L390.7,322.4c0-2.1,1.7-3.8,3.8-3.8h27.1c2.1,0,3.8,1.7,3.8,3.8l0,0c0,2.1-1.7,3.8-3.8,3.8h-27.1
			C392.4,326.3,390.7,324.6,390.7,322.4z"/>
		<path class="st1" d="M390.7,337.7L390.7,337.7c0-2.1,1.7-3.8,3.8-3.8h27.1c2.1,0,3.8,1.7,3.8,3.8l0,0c0,2.1-1.7,3.8-3.8,3.8h-27.1
			C392.4,341.5,390.7,339.8,390.7,337.7z"/>
		<path class="st1" d="M390.7,353L390.7,353c0-2.1,1.7-3.8,3.8-3.8h27.1c2.1,0,3.8,1.7,3.8,3.8l0,0c0,2.1-1.7,3.8-3.8,3.8h-27.1
			C392.4,356.8,390.7,355.1,390.7,353z"/>
		<path class="st1" d="M390.7,368.2L390.7,368.2c0-2.1,1.7-3.8,3.8-3.8h22.3c2.1,0,3.8,1.7,3.8,3.8l0,0c0,2.1-1.7,3.8-3.8,3.8h-22.3
			C392.4,372,390.7,370.3,390.7,368.2z"/>
		<path class="st1" d="M390.7,383.5L390.7,383.5c0-2.1,1.7-3.8,3.8-3.8h17.6c2.1,0,3.8,1.7,3.8,3.8l0,0c0,2.1-1.7,3.8-3.8,3.8h-17.6
			C392.4,387.3,390.7,385.6,390.7,383.5z"/>
		<path class="st1" d="M390.7,398.8L390.7,398.8c0-2.1,1.7-3.8,3.8-3.8h13.4c2.1,0,3.8,1.7,3.8,3.8l0,0c0,2.1-1.7,3.8-3.8,3.8h-13.4
			C392.4,402.6,390.7,400.9,390.7,398.8z"/>
		<path class="st1" d="M360.1,322.4L360.1,322.4c0-2.1-1.7-3.8-3.8-3.8h-27.1c-2.1,0-3.8,1.7-3.8,3.8l0,0c0,2.1,1.7,3.8,3.8,3.8
			h27.1C358.4,326.3,360.1,324.6,360.1,322.4z"/>
		<path class="st1" d="M360.1,337.7L360.1,337.7c0-2.1-1.7-3.8-3.8-3.8h-27.1c-2.1,0-3.8,1.7-3.8,3.8l0,0c0,2.1,1.7,3.8,3.8,3.8
			h27.1C358.4,341.5,360.1,339.8,360.1,337.7z"/>
		<path class="st1" d="M360.1,368.2L360.1,368.2c0-2.1-1.7-3.8-3.8-3.8H334c-2.1,0-3.8,1.7-3.8,3.8l0,0c0,2.1,1.7,3.8,3.8,3.8h22.3
			C358.4,372,360.1,370.3,360.1,368.2z"/>
		<path class="st1" d="M360.1,383.5L360.1,383.5c0-2.1-1.7-3.8-3.8-3.8h-17.6c-2.1,0-3.8,1.7-3.8,3.8l0,0c0,2.1,1.7,3.8,3.8,3.8
			h17.6C358.4,387.3,360.1,385.6,360.1,383.5z"/>
		<path class="st1" d="M360.1,398.8L360.1,398.8c0-2.1-1.7-3.8-3.8-3.8h-13.4c-2.1,0-3.8,1.7-3.8,3.8l0,0c0,2.1,1.7,3.8,3.8,3.8
			h13.4C358.4,402.6,360.1,400.9,360.1,398.8z"/>
		<path class="st18" d="M381.7,234.5c0-0.2,0-0.4,0-0.6c0-3.5-2.8-6.2-6.2-6.2s-6.2,2.8-6.2,6.2V247l0,0c0.3,3.1,2.9,5.7,6.2,5.7
			c3.5,0,6.2-2.8,6.2-6.2c0-0.2,0-0.4,0-0.6V234.5z"/>
		<circle class="st18" cx="342.3" cy="226.4" r="10.2"/>
		<circle class="st18" cx="408.6" cy="226.4" r="10.2"/>
		<path class="st1" d="M403,296.8h-54.1c-4.2,0-7.6-3.4-7.6-7.6v-10c0-0.6,0.5-1,1-1h67.2c0.6,0,1,0.5,1,1v10
			C410.6,293.4,407.2,296.8,403,296.8z"/>
		<path class="st1" d="M378,274.8h-4.1c-1,0-1.8-0.8-1.8-1.8v-5.9h7.6v5.9C379.8,274,379,274.8,378,274.8z"/>
		<path class="st1" d="M393.3,274.8h-4.1c-1,0-1.8-0.8-1.8-1.8v-5.9h7.6v5.9C395,274,394.2,274.8,393.3,274.8z"/>
		<path class="st1" d="M408.5,274.8h-4.1c-1,0-1.8-0.8-1.8-1.8v-5.9h7.6v5.9C410.3,274,409.5,274.8,408.5,274.8z"/>
		<path class="st1" d="M347.5,274.8h-4.1c-1,0-1.8-0.8-1.8-1.8v-5.9h7.6v5.9C349.3,274,348.5,274.8,347.5,274.8z"/>
		<path class="st1" d="M362.8,274.8h-4.1c-1,0-1.8-0.8-1.8-1.8v-5.9h7.6v5.9C364.5,274,363.7,274.8,362.8,274.8z"/>
		<path class="st19" d="M368.3,165v32.3h-5.7v2.6h-5.7v12.7c0,1.6,1.3,2.8,2.8,2.8c1.6,0,2.8-1.3,2.8-2.8V210c0-1.6,1.3-2.8,2.8-2.8
			c1.6,0,2.8,1.3,2.8,2.8v1.5c0,1.6,1.3,2.8,2.8,2.8s2.8-1.3,2.8-2.8V165H368.3z"/>
		<path class="st19" d="M327,210.5h-5.7v12.7c0,1.6,1.3,2.8,2.8,2.8s2.8-1.3,2.8-2.8V214c0-1.6,1.3-2.8,2.8-2.8
			c1.6,0,2.8,1.3,2.8,2.8l0,0c0,1.6,1.3,2.8,2.8,2.8c1.6,0,2.8-1.3,2.8-2.8v-3.6C334.9,210.5,331.1,210.5,327,210.5L327,210.5z"/>
		<path class="st11" d="M374,165h-24.6c-15.5,0-28.1,12.6-28.1,28.1v10.7v6.7C374,210.5,374,210.5,374,165z"/>
		<g>
			<path class="st8" d="M354.4,175.4c-2.8,0.6-5.4,1.5-7.8,2.7c-2.4,1.3-4.5,2.8-6.4,4.7c-1.9,1.9-3.4,4-4.6,6.4
				c-1.2,2.4-2.1,5-2.8,7.8v0.1c-0.3,1.1-1.4,1.8-2.5,1.5c-0.8-0.2-1.4-0.8-1.5-1.6c-0.7-3.4-0.3-7,0.8-10.3
				c1.1-3.4,3.1-6.4,5.6-8.9s5.6-4.4,9-5.6c3.3-1.1,6.9-1.5,10.3-0.9c1.1,0.2,1.8,1.3,1.6,2.4C355.9,174.6,355.2,175.2,354.4,175.4
				L354.4,175.4z"/>
		</g>
		<circle class="st20" cx="350.4" cy="204.1" r="2.7"/>
		<circle class="st20" cx="356.5" cy="202.1" r="1.6"/>
		<circle class="st20" cx="352.3" cy="198.1" r="1.3"/>
		<circle class="st20" cx="420.1" cy="399.8" r="2"/>
		<circle class="st20" cx="424.5" cy="398.3" r="1.2"/>
		<circle class="st20" cx="421.5" cy="395.4" r="0.9"/>
		<circle class="st20" cx="338" cy="356.3" r="2"/>
		<circle class="st20" cx="340.1" cy="360.4" r="1.2"/>
		<circle class="st20" cx="342.5" cy="357" r="0.9"/>
		<path class="st1" d="M360.1,353L360.1,353c0-2.1-1.7-3.8-3.8-3.8h-27.1c-2.1,0-3.8,1.7-3.8,3.8l0,0c0,2.1,1.7,3.8,3.8,3.8h27.1
			C358.4,356.8,360.1,355.1,360.1,353z"/>
		<path class="st4" d="M402.9,451.9c-5.1,0-9.7-3.4-11.1-8.5c-1.7-6.1,1.9-12.5,8-14.1c5.1-1.4,5.8-3.7,6-4.8
			c0.5-1.8,0.2-3.6,0.2-3.6c-1.5-6.2,2.4-12.4,8.6-13.8c6.2-1.5,12.4,2.4,13.8,8.6c2.6,11.2-1.2,30-22.6,35.8
			C404.9,451.7,403.9,451.9,402.9,451.9z"/>
		<circle class="st10" cx="398" cy="443.7" r="2"/>
		<circle class="st10" cx="401.3" cy="447" r="1.2"/>
		<circle class="st21" cx="329.2" cy="443.7" r="2"/>
		<circle class="st21" cx="334" cy="442.1" r="1.2"/>
		<circle class="st21" cx="328.1" cy="438.5" r="1.6"/>
		<circle class="st18" cx="375.4" cy="478.9" r="7.6"/>
		<path class="st22" d="M419.1,451.5h-87.3v23.4c0-10.5,87.3-10.5,87.3,0V451.5z"/>
		<path class="st7" d="M331.7,483.1c-4.4,0-8-3.6-8-8V467c0-0.9,0.1-1.8,0.1-2.7c0.3-2.8,1.9-5.2,4.5-6.4c-1-2.6-0.6-5.5,1.1-7.8
			c1.5-2,3.8-3.2,6.3-3.2c0.6-2.4,2.2-4.4,4.5-5.5c3.6-1.6,7.6-2.5,11.5-2.5h12.5c2.1,0,4,0.8,5.5,2.2c1.5-1.4,3.4-2.2,5.5-2.2
			c1.8,0,3.6,0.6,5,1.8c1.4-1.1,3.2-1.8,5-1.8H399c3.4,0,6.7,0.6,9.8,1.8c2.6,1,4.5,3.2,5.1,6c2.8-0.3,5.5,0.8,7.2,3l0,0
			c1.5,2,2.1,4.5,1.4,6.9c2.2,1.2,3.7,3.3,4.1,5.8c0.2,1.5,0.4,3,0.4,4.5v8.1c0,4.4-3.6,8-8,8s-8-3.6-8-8v-8.1c0-0.7-0.1-1.3-0.2-2
			c-0.2-1.1-0.1-2.2,0.2-3.3c-1-0.5-1.8-1.2-2.5-2.1l0,0c-0.8-1-1.3-2.2-1.5-3.4c-1.3,0.1-2.5,0-3.7-0.5c-1.3-0.5-2.8-0.8-4.2-0.8
			h-13.8c-1.8,0-3.6-0.6-5-1.8c-1.4,1.1-3.2,1.8-5,1.8c-2.1,0-4-0.8-5.5-2.2c-1.5,1.4-3.4,2.2-5.5,2.2h-12.5c-1.7,0-3.4,0.4-4.9,1.1
			c-1,0.5-2.1,0.7-3.2,0.7c-0.3,1.1-0.7,2.1-1.4,3c-0.8,1-1.8,1.8-2.9,2.4c0.5,1.2,0.6,2.4,0.5,3.7c0,0.4-0.1,0.8-0.1,1.2v8.1
			C339.7,479.5,336.1,483.1,331.7,483.1z"/>
		<path class="st1" d="M390.7,475.1L390.7,475.1c0-2.1,1.7-3.8,3.8-3.8h30.3c2.1,0,3.8,1.7,3.8,3.8l0,0c0,2.1-1.7,3.8-3.8,3.8h-30.3
			C392.4,478.9,390.7,477.2,390.7,475.1z"/>
		<path class="st1" d="M322.2,475.1L322.2,475.1c0-2.1,1.7-3.8,3.8-3.8h30.3c2.1,0,3.8,1.7,3.8,3.8l0,0c0,2.1-1.7,3.8-3.8,3.8H326
			C323.9,478.9,322.2,477.2,322.2,475.1z"/>
		<path class="st1" d="M390.7,414L390.7,414c0-2.1,1.7-3.8,3.8-3.8h13.4c2.1,0,3.8,1.7,3.8,3.8l0,0c0,2.1-1.7,3.8-3.8,3.8h-13.4
			C392.4,417.8,390.7,416.1,390.7,414z"/>
	</g>
</g>
</svg>
