<?xml version="1.0" encoding="utf-8"?>
<!-- Generator: Adobe Illustrator 22.1.0, SVG Export Plug-In . SVG Version: 6.00 Build 0)  -->
<svg version="1.1" id="Layer_1" xmlns="http://www.w3.org/2000/svg" xmlns:xlink="http://www.w3.org/1999/xlink" x="0px" y="0px"
	 viewBox="0 0 750 750" style="enable-background:new 0 0 750 750;" xml:space="preserve">
<style type="text/css">
	.st0{fill:#528899;}
	.st1{fill:#676766;}
	.st2{fill:#A8A7A7;}
	.st3{fill:#D6C9C5;}
	.st4{fill:#E3D5D1;}
	.st5{fill:#609B57;}
	.st6{fill:#70B966;}
	.st7{fill:#546348;}
	.st8{fill:#5EA5C1;}
	.st9{fill:#5E7350;}
	.st10{fill:#C8B9AE;}
	.st11{fill:#EFE0D7;}
	.st12{fill:#BAA89E;}
	.st13{fill:#FFFFFF;}
	.st14{fill:#343434;}
	.st15{fill:#443C31;}
	.st16{fill:#685C48;}
</style>
<g>
	<path class="st0" d="M367,489.4h10.6c-0.3-4.9-2.2-9.7-5.9-13.4l0,0c-8-8-20.9-8-28.9,0l-84.4,84.4c-8,8-8,20.9,0,28.9l0,0
		c8,8,20.9,8,28.9,0l79.7-79.7V489.4z"/>
	<path class="st0" d="M492.4,560.4L408,475.9c-8-8-20.9-8-28.9,0l0,0c-3.7,3.7-5.7,8.6-5.9,13.4h10.7v20.3l79.7,79.7
		c8,8,20.9,8,28.9,0S500.4,568.3,492.4,560.4z"/>
	
		<rect x="244.6" y="566.2" transform="matrix(0.7071 0.7071 -0.7071 0.7071 489.6402 -16.726)" class="st1" width="40.9" height="32.9"/>
	<path class="st1" d="M258.3,599.3l-29-29l9.6-9.6c3.9-3.9,10.2-3.9,14.1,0l22,22L258.3,599.3z"/>
	<path class="st2" d="M266.6,610l-38.4-38.4c-0.7-0.7-0.7-1.8,0-2.4h0c0.7-0.7,1.8-0.7,2.4,0l38.4,38.4c0.7,0.7,0.7,1.8,0,2.4l0,0
		C268.3,610.6,267.2,610.6,266.6,610z"/>
	
		<rect x="465.3" y="566.1" transform="matrix(-0.7071 0.7071 -0.7071 -0.7071 1241.2416 651.0527)" class="st1" width="40.9" height="32.9"/>
	<path class="st1" d="M492.5,599.2l29-29l-9.6-9.6c-3.9-3.9-10.2-3.9-14.1,0l-22,22L492.5,599.2z"/>
	<path class="st2" d="M484.2,609.9l38.4-38.4c0.7-0.7,0.7-1.8,0-2.4l0,0c-0.7-0.7-1.8-0.7-2.4,0l-38.4,38.4c-0.7,0.7-0.7,1.8,0,2.4
		v0C482.5,610.5,483.5,610.5,484.2,609.9z"/>
	<circle class="st3" cx="258.9" cy="253.6" r="10.5"/>
	
		<rect x="235.6" y="244.4" transform="matrix(-0.7071 0.7071 -0.7071 -0.7071 626.5049 287.9295)" class="st3" width="36" height="58.6"/>
	<circle class="st4" cx="236.7" cy="250.3" r="22.7"/>
	
		<rect x="277.4" y="285.7" transform="matrix(-0.7071 0.7071 -0.7071 -0.7071 727.3123 329.6853)" class="st5" width="36" height="59.5"/>
	<circle class="st6" cx="316.4" cy="336.5" r="18"/>
	
		<rect x="252" y="284" transform="matrix(-0.7071 0.7071 -0.7071 -0.7071 666.0238 304.2988)" class="st7" width="36" height="12.3"/>
	<circle class="st3" cx="490" cy="253.4" r="10.5"/>
	
		<rect x="477.3" y="244.3" transform="matrix(0.7071 0.7071 -0.7071 0.7071 338.504 -270.1132)" class="st3" width="36" height="58.6"/>
	<circle class="st4" cx="512.2" cy="250.1" r="22.7"/>
	
		<rect x="435.5" y="285.5" transform="matrix(0.7071 0.7071 -0.7071 0.7071 355.7998 -228.3574)" class="st5" width="36" height="59.5"/>
	<circle class="st6" cx="432.5" cy="336.4" r="18"/>
	
		<rect x="460.9" y="283.8" transform="matrix(0.7071 0.7071 -0.7071 0.7071 345.2844 -253.7439)" class="st7" width="36" height="12.3"/>
	<path class="st8" d="M346.6,625.8L346.6,625.8c11.3,0,20.5-9.2,20.5-20.5V486c0-11.3-9.2-20.5-20.5-20.5h0
		c-11.3,0-20.5,9.2-20.5,20.5v119.4C326.1,616.7,335.3,625.8,346.6,625.8z"/>
	<rect x="326.1" y="599.9" class="st1" width="40.9" height="32.9"/>
	<path class="st1" d="M353.6,632.9h-41.1v-13.6c0-5.5,4.5-10,10-10h31.1V632.9z"/>
	<path class="st2" d="M367,634.6h-54.3c-0.9,0-1.7-0.8-1.7-1.7l0,0c0-0.9,0.8-1.7,1.7-1.7H367c0.9,0,1.7,0.8,1.7,1.7l0,0
		C368.7,633.8,367.9,634.6,367,634.6z"/>
	<path class="st8" d="M404.3,625.8L404.3,625.8c11.3,0,20.5-9.2,20.5-20.5V486c0-11.3-9.2-20.5-20.5-20.5h0
		c-11.3,0-20.5,9.2-20.5,20.5v119.4C383.8,616.7,393,625.8,404.3,625.8z"/>
	
		<rect x="383.9" y="599.9" transform="matrix(-1 -4.498813e-11 4.498813e-11 -1 808.6409 1232.7974)" class="st1" width="40.9" height="32.9"/>
	<path class="st1" d="M397.3,632.9h41.1v-13.6c0-5.5-4.5-10-10-10h-31.1V632.9z"/>
	<path class="st2" d="M383.9,634.6h54.3c0.9,0,1.7-0.8,1.7-1.7l0,0c0-0.9-0.8-1.7-1.7-1.7h-54.3c-0.9,0-1.7,0.8-1.7,1.7l0,0
		C382.2,633.8,383,634.6,383.9,634.6z"/>
	<path class="st8" d="M317.5,477.2c0-32,115.8-32,115.8,0S317.5,509.2,317.5,477.2z"/>
	<path class="st6" d="M433.2,465.5H317.5V330.5c0-11,9-20,20-20h75.8c11,0,20,9,20,20V465.5z"/>
	<rect x="317.5" y="465.5" class="st9" width="115.8" height="12.3"/>
	<path class="st10" d="M381,329.8h-11.2c-9.4,0-17.1-7.7-17.1-17.1v-28.3h45.4v28.3C398.1,322.2,390.5,329.8,381,329.8z"/>
	<circle class="st4" cx="218.2" cy="318.3" r="10.5"/>
	
		<rect x="210.7" y="307.1" transform="matrix(-1.836970e-16 1 -1 -1.836970e-16 565.0354 107.6777)" class="st4" width="36" height="58.6"/>
	<circle class="st11" cx="200.2" cy="331.7" r="22.7"/>
	
		<rect x="269.7" y="306.6" transform="matrix(-1.836970e-16 1 -1 -1.836970e-16 624.087 48.626)" class="st6" width="36" height="59.5"/>
	<circle class="st11" cx="199.4" cy="336.4" r="18"/>
	<circle class="st6" cx="317.5" cy="336.4" r="18"/>
	
		<rect x="233.8" y="330.2" transform="matrix(-1.836970e-16 1 -1 -1.836970e-16 588.1851 84.528)" class="st9" width="36" height="12.3"/>
	<circle class="st4" cx="531.8" cy="318.3" r="10.5"/>
	
		<rect x="503.3" y="307.1" transform="matrix(-4.502017e-11 1 -1 -4.502017e-11 857.6777 -184.9646)" class="st4" width="36" height="58.6"/>
	<circle class="st11" cx="549.8" cy="331.7" r="22.7"/>
	
		<rect x="444.2" y="306.6" transform="matrix(-4.461694e-11 1 -1 -4.461694e-11 798.626 -125.913)" class="st6" width="36" height="59.5"/>
	<circle class="st11" cx="550.6" cy="336.4" r="18"/>
	<circle class="st6" cx="432.5" cy="336.4" r="18"/>
	
		<rect x="480.2" y="330.2" transform="matrix(-4.461694e-11 1 -1 -4.461694e-11 834.528 -161.815)" class="st9" width="36" height="12.3"/>
	<circle class="st10" cx="450.2" cy="226.2" r="9.2"/>
	<circle class="st12" cx="450.2" cy="226.2" r="5.6"/>
	<circle class="st10" cx="300.7" cy="226.2" r="9.2"/>
	<circle class="st12" cx="300.7" cy="226.2" r="5.6"/>
	<path class="st11" d="M410.2,301h-69.5c-22.1,0-40-17.9-40-40v-69.5c0-22.1,17.9-40,40-40h69.5c22.1,0,40,17.9,40,40V261
		C450.2,283.1,432.2,301,410.2,301z"/>
	<g>
		<path class="st13" d="M397.5,256.7c3.9,0,6.6,3.7,5.6,7.5c-3.3,12-14.2,20.7-27.2,20.7s-24-8.8-27.2-20.7c-1-3.8,1.8-7.5,5.6-7.5
			H397.5z"/>
		<path class="st10" d="M382.1,234.3c0-0.2,0-0.4,0-0.6c0-3.5-2.8-6.2-6.2-6.2c-3.4,0-6.2,2.8-6.2,6.2v13.1l0,0
			c0.3,3.1,2.9,5.7,6.2,5.7c3.5,0,6.2-2.8,6.2-6.2c0-0.2,0-0.4,0-0.6V234.3z"/>
		<circle class="st14" cx="342.8" cy="226.2" r="10.2"/>
		<circle class="st14" cx="409" cy="226.2" r="10.2"/>
		<path class="st15" d="M349.6,200.3H336c-1.8,0-3.4,1.5-3.4,3.4v2c0,1.8,1.5,3.4,3.4,3.4h13.6c1.8,0,3.4-1.5,3.4-3.4v-2
			C353,201.8,351.5,200.3,349.6,200.3z"/>
		<path class="st15" d="M415.8,200.3h-13.6c-1.8,0-3.4,1.5-3.4,3.4v2c0,1.8,1.5,3.4,3.4,3.4h13.6c1.8,0,3.4-1.5,3.4-3.4v-2
			C419.2,201.8,417.7,200.3,415.8,200.3z"/>
	</g>
	<path class="st16" d="M450.1,151.5c-0.6-8.8-7.9-15.7-16.8-15.7H317.5c-8.9,0-16.2,6.9-16.8,15.7h-0.1v1.2v13.8v29.9
		c8.6,0,15.5-6.9,15.5-15.5v-11.6c0-5,4.1-9.1,9.1-9.1h100.3c5,0,9.1,4.1,9.1,9.1V181c0,8.6,6.9,15.5,15.5,15.5v-36.2v-7.5
		L450.1,151.5L450.1,151.5z"/>
	<path class="st16" d="M301.5,159.1c-0.1-3.9-8.9-17.4-8.9-17.4c2-0.6,11.3,1.6,11.3,1.6c-2.3-4-3.4-9.2-3.8-12.7
		c-0.2-1.6,1.6-2.5,2.8-1.6c3.4,2.7,7.9,7,7.9,7c3.6-7.3,6.8-11,9.4-12.7c1.6-1.1,3.6,0.4,3,2.3c-1.4,4.1-2.3,9.4-2.3,9.4
		c37.4-18.3,65.5-20,78.1-19.6c2.2,0.1,3.1,2.9,1.3,4.2c-4.1,3.1-8.7,7-8.7,7c37.2-7.3,67.1,13,67.1,14.7s-9.9,6-9.9,6
		c1.5-0.5,11.8,7,10.1,8.3c-32.9,25.9-95.7,4.7-95.7,4.7c0.6,2,9,7.2,13.5,9.8c1.2,0.7,1,2.5-0.3,2.9
		C349.3,181.9,301.5,159.1,301.5,159.1L301.5,159.1z"/>
</g>
</svg>
