<?xml version="1.0" encoding="utf-8"?>
<!-- Generator: Adobe Illustrator 22.1.0, SVG Export Plug-In . SVG Version: 6.00 Build 0)  -->
<svg version="1.1" id="Layer_2_1_" xmlns="http://www.w3.org/2000/svg" xmlns:xlink="http://www.w3.org/1999/xlink" x="0px" y="0px"
	 viewBox="0 0 250 250" style="enable-background:new 0 0 250 250;" xml:space="preserve">
<style type="text/css">
	.st0{fill:#53BCEA;}
	.st1{fill:#4AA5C6;}
	.st2{fill:#FFFFFF;}
	.st3{fill:#D33331;}
	.st4{fill:#B52F2C;}
	.st5{fill:#E83C3C;}
	.st6{fill:#EC6668;}
</style>
<g id="Layer_4_2_">
	<g>
		<path class="st0" d="M63.3,122.3c-8.7,0-15.8-7.1-15.8-15.8V49.2c0-8.7,7.1-15.8,15.8-15.8s15.8,7.1,15.8,15.8v57.2
			C79.4,115.1,72.3,122.3,63.3,122.3z"/>
		<path class="st1" d="M63.3,59.5c-2.8,0-5.5-1.2-7.5-3.2s-3.2-4.7-3.2-7.5c0-2.8,1.2-5.5,3.2-7.5c2.4-2.4,6.3-3.5,9.5-2.8
			c0.8,0,1.2,0.4,2,0.8c0.8,0.4,1.2,0.8,2,0.8c0.4,0.4,1.2,0.8,1.6,1.2c2,2,3.2,4.7,3.2,7.5c0,2.8-1.2,5.5-3.2,7.5
			c-0.4,0.4-1.2,0.8-1.6,1.2c-0.8,0.4-1.2,0.8-2,0.8c-0.8,0.4-1.2,0.4-2,0.8C64.9,59.5,64.1,59.5,63.3,59.5z"/>
		<path class="st2" d="M54.6,94.6L54.6,94.6c-0.8,0-1.6-0.8-1.6-1.6V76.4c0-0.8,0.8-1.6,1.6-1.6l0,0c0.8,0,1.6,0.8,1.6,1.6V93
			C56.2,93.8,55.4,94.6,54.6,94.6z"/>
		<path class="st2" d="M54.6,71.8L54.6,71.8c-0.8,0-1.6-0.8-1.6-1.6v-3.9c0-0.8,0.8-1.6,1.6-1.6l0,0c0.8,0,1.6,0.8,1.6,1.6v3.9
			C56.2,71,55.4,71.8,54.6,71.8z"/>
		<path class="st0" d="M99.2,102.9c0-8.7,7.1-15.8,15.8-15.8h82.4c8.7,0,15.8,7.1,15.8,15.8s-7.1,15.8-15.8,15.8H115
			C106.3,118.8,99.2,111.6,99.2,102.9z"/>
		<path class="st1" d="M186.7,102.9c0-2.8,1.2-5.5,3.2-7.5s4.7-3.2,7.5-3.2s5.5,1.2,7.5,3.2c2.4,2.4,3.5,6.3,2.8,9.5
			c0,0.8-0.4,1.2-0.8,2s-0.8,1.2-0.8,2c-0.4,0.4-0.8,1.2-1.2,1.6c-2,2-4.7,3.2-7.5,3.2s-5.5-1.2-7.5-3.2c-0.4-0.4-0.8-1.2-1.2-1.6
			c-0.4-0.8-0.8-1.2-0.8-2c-0.4-0.8-0.4-1.2-0.8-2C186.7,104.1,186.7,103.8,186.7,102.9z"/>
		<path class="st2" d="M151.6,93.8L151.6,93.8c0-0.8,0.8-1.6,1.6-1.6h16.6c0.8,0,1.6,0.8,1.6,1.6l0,0c0,0.8-0.8,1.6-1.6,1.6h-16.6
			C152.4,95.4,151.6,94.6,151.6,93.8z"/>
		<path class="st2" d="M174.9,93.8L174.9,93.8c0-0.8,0.8-1.6,1.6-1.6h3.9c0.8,0,1.6,0.8,1.6,1.6l0,0c0,0.8-0.8,1.6-1.6,1.6h-3.9
			C175.7,95.4,174.9,94.6,174.9,93.8z"/>
		<path class="st3" d="M119.3,97c-4.7,0-8.7-3.9-8.7-8.7V57.5c0-4.7,3.9-8.7,8.7-8.7c4.7,0,8.7,3.9,8.7,8.7v30.8
			C128,93.1,124,97,119.3,97z"/>
		<path class="st4" d="M119.3,63.1c-1.6,0-3.2-0.8-3.9-1.6c-1.2-1.2-1.6-2.4-1.6-3.9c0-1.6,0.8-3.2,1.6-3.9c1.2-1.2,3.2-2,5.1-1.6
			c0.4,0,0.8,0,1.2,0.4c0.4,0,0.8,0.4,1.2,0.4c0.4,0.4,0.8,0.4,0.8,0.8c1.2,1.2,1.6,2.4,1.6,3.9c0,1.6-0.8,3.2-1.6,3.9
			c-0.4,0.4-0.4,0.4-0.8,0.8s-0.8,0.4-1.2,0.4c-0.4,0-0.8,0.4-1.2,0.4C120.1,63.1,119.7,63.1,119.3,63.1z"/>
		<path class="st3" d="M125.6,93.8c-3.5,3.5-8.7,3.5-12.2,0L91.7,71.8c-3.5-3.5-3.5-8.7,0-12.2s8.7-3.5,12.2,0L126,81.6
			C128.7,85.3,128.7,90.8,125.6,93.8z"/>
		<path class="st4" d="M101.5,70.3c-1.2,1.2-2.4,1.6-3.9,1.6c-1.6,0-3.2-0.8-3.9-1.6c-1.2-1.2-1.6-2.4-1.6-3.9c0-2,0.8-3.5,2.8-4.7
			c0.4-0.4,0.8-0.4,0.8-0.4c0.4,0,0.8-0.4,1.2-0.4c0.4,0,0.8,0,1.2,0c1.6,0,3.2,0.8,3.9,1.6c1.2,1.2,1.6,2.4,1.6,3.9
			c0,0.4,0,0.8,0,1.2s0,0.8-0.4,1.2c0,0.4-0.4,0.8-0.4,0.8C101.9,69.4,101.9,69.8,101.5,70.3z"/>
		<path class="st3" d="M113.4,93.8c-3.5-3.5-3.5-8.7,0-12.2l21.7-22.1c3.5-3.5,8.7-3.5,12.2,0s3.5,8.7,0,12.2l-21.7,22.1
			C122,97.4,116.5,97.4,113.4,93.8z"/>
		<path class="st4" d="M137.4,70.3c-1.2-1.2-1.6-2.4-1.6-3.9c0-1.6,0.8-3.2,1.6-3.9c1.2-1.2,2.4-1.6,3.9-1.6c2,0,3.5,0.8,4.7,2.8
			c0.4,0.4,0.4,0.8,0.4,0.8c0,0.4,0.4,0.8,0.4,1.2s0,0.8,0,1.2c0,1.6-0.8,3.2-1.6,3.9c-1.2,1.2-2.4,1.6-3.9,1.6c-0.4,0-0.8,0-1.2,0
			s-0.8,0-1.2-0.4c-0.4,0-0.8-0.4-0.8-0.4C137.8,70.6,137.4,70.3,137.4,70.3z"/>
		<circle class="st3" cx="119.3" cy="89.1" r="17.7"/>
		<path class="st3" d="M42,138v27.6c0,28,22.9,50.9,50.9,50.9h57.6c5.9,0,11-2.4,15-6.3L57,101.8C47.9,111.3,42,123.8,42,138z"/>
		<g>
			<path class="st5" d="M162.7,213.1c-1.6,1.2-3.5,2-5.5,2.8C158.7,214.9,160.7,214.1,162.7,213.1z"/>
			<path class="st5" d="M120.9,86.8H93.3c-24.8,0-45.4,17.4-50.1,40.6c2-9.9,7.1-18.9,13.8-25.6l108.5,108.5c3.9-3.9,6.3-9.1,6.3-15
				v-57.6C171.7,109.6,148.9,86.8,120.9,86.8z"/>
		</g>
		<path class="st6" d="M110.2,82H95.6c-32.3,0-58.8,26.4-58.8,58.8v14.6c0,4.3,5.1,6.7,8.3,3.5l68.2-68.2
			C116.9,87.1,114.5,82,110.2,82z"/>
	</g>
</g>
</svg>
